/* XPM */
static char * dot_xpm[] = {
"26 26 32 1",
" 	c None",
".	c #2A2CFA",
"+	c #1C1EFB",
"@	c #5863ED",
"#	c #B0C5DA",
"$	c #AFC3DA",
"%	c #ABC0DB",
"&	c #A8BCDC",
"*	c #A4B8DD",
"=	c #A1B4DD",
"-	c #ABBFDC",
";	c #A7BCDC",
">	c #A4B7DD",
",	c #9DB0DE",
"'	c #ABBFDB",
")	c #A0B4DD",
"!	c #99ACDF",
"~	c #A3B8DD",
"{	c #A0B3DE",
"]	c #9DAFDE",
"^	c #96A7E0",
"/	c #A4B7DC",
"(	c #A0B3DD",
"_	c #9DB0DF",
":	c #99ABDF",
"<	c #95A8E0",
"[	c #92A3E0",
"}	c #9FB3DE",
"|	c #9DAFDF",
"1	c #95A7E0",
"2	c #92A4E1",
"3	c #8FA0E2",
"                          ",
"                          ",
"                          ",
"                          ",
"                          ",
"                          ",
"                          ",
"                          ",
"                          ",
"         .......+         ",
"         @#$%&*=.         ",
"         @$-;>=,.         ",
"         @';>),!.         ",
"         @;~{]!^.         ",
"         @/(_:<[.         ",
"         @}|:123.         ",
"         @@@@@@@.         ",
"                          ",
"                          ",
"                          ",
"                          ",
"                          ",
"                          ",
"                          ",
"                          ",
"                          "};
