/* XPM */
static char * inactive_freehand_xpm[] = {
"26 26 154 2",
"  	g None",
". 	g #F7F7F7",
"+ 	g #606060",
"@ 	g #F3F3F3",
"# 	g #F6F6F6",
"$ 	g #FCFCFC",
"% 	g #868686",
"& 	g #5A5A5A",
"* 	g #595959",
"= 	g #5F5F5F",
"- 	g #878787",
"; 	g #ECECEC",
"> 	g #9D9D9D",
", 	g #444444",
"' 	g #EFEFEF",
") 	g #F4F4F4",
"! 	g #E9E9E9",
"~ 	g #EEEEEE",
"{ 	g #A2A2A2",
"] 	g #8D8D8D",
"^ 	g #363636",
"/ 	g #A0A0A0",
"( 	g #F2F2F2",
"_ 	g #FDFDFD",
": 	g #DFDFDF",
"< 	g #D4D4D4",
"[ 	g #CFCFCF",
"} 	g #767676",
"| 	g #D3D3D3",
"1 	g #1B1B1B",
"2 	g #F8F8F8",
"3 	g #F0F0F0",
"4 	g #D5D5D5",
"5 	g #C9C9C9",
"6 	g #929292",
"7 	g #999999",
"8 	g #6A6A6A",
"9 	g #787878",
"0 	g #FEFEFE",
"a 	g #DCDCDC",
"b 	g #CCCCCC",
"c 	g #C0C0C0",
"d 	g #BEBEBE",
"e 	g #E2E2E2",
"f 	g #4D4D4D",
"g 	g #E4E4E4",
"h 	g #131313",
"i 	g #C3C3C3",
"j 	g #B6B6B6",
"k 	g #ADADAD",
"l 	g #6C6C6C",
"m 	g #A8A8A8",
"n 	g #979797",
"o 	g #484848",
"p 	g #EAEAEA",
"q 	g #FBFBFB",
"r 	g #DDDDDD",
"s 	g #C6C6C6",
"t 	g #BABABA",
"u 	g #AFAFAF",
"v 	g #ABABAB",
"w 	g #A5A5A5",
"x 	g #717171",
"y 	g #333333",
"z 	g #A6A6A6",
"A 	g #BDBDBD",
"B 	g #B1B1B1",
"C 	g #737373",
"D 	g #454545",
"E 	g #D8D8D8",
"F 	g #525252",
"G 	g #EDEDED",
"H 	g #CBCBCB",
"I 	g #1F1F1F",
"J 	g #E1E1E1",
"K 	g #D2D2D2",
"L 	g #C8C8C8",
"M 	g #B3B3B3",
"N 	g #ACACAC",
"O 	g #2D2D2D",
"P 	g #676767",
"Q 	g #B8B8B8",
"R 	g #7A7A7A",
"S 	g #8C8C8C",
"T 	g #6B6B6B",
"U 	g #7B7B7B",
"V 	g #9F9F9F",
"W 	g #8E8E8E",
"X 	g #191919",
"Y 	g #686868",
"Z 	g #F9F9F9",
"` 	g #EBEBEB",
" .	g #080808",
"..	g #FFFFFF",
"+.	g #D0D0D0",
"@.	g #343434",
"#.	g #A9A9A9",
"$.	g #545454",
"%.	g #B9B9B9",
"&.	g #5C5C5C",
"*.	g #323232",
"=.	g #434343",
"-.	g #3C3C3C",
";.	g #D6D6D6",
">.	g #000000",
",.	g #FAFAFA",
"'.	g #E0E0E0",
").	g #696969",
"!.	g #101010",
"~.	g #E7E7E7",
"{.	g #666666",
"].	g #474747",
"^.	g #797979",
"/.	g #F5F5F5",
"(.	g #C1C1C1",
"_.	g #F1F1F1",
":.	g #D7D7D7",
"<.	g #0C0C0C",
"[.	g #202020",
"}.	g #DADADA",
"|.	g #CDCDCD",
"1.	g #A4A4A4",
"2.	g #0A0A0A",
"3.	g #3E3E3E",
"4.	g #DEDEDE",
"5.	g #D1D1D1",
"6.	g #B2B2B2",
"7.	g #232323",
"8.	g #8F8F8F",
"9.	g #B4B4B4",
"0.	g #222222",
"a.	g #505050",
"b.	g #BFBFBF",
"c.	g #7D7D7D",
"d.	g #C4C4C4",
"e.	g #313131",
"f.	g #6E6E6E",
"g.	g #838383",
"h.	g #DBDBDB",
"i.	g #121212",
"j.	g #3A3A3A",
"k.	g #181818",
"l.	g #0D0D0D",
"m.	g #3D3D3D",
"n.	g #010101",
"o.	g #3B3B3B",
"p.	g #585858",
"q.	g #303030",
"r.	g #707070",
"s.	g #575757",
"t.	g #404040",
"u.	g #1C1C1C",
"v.	g #E3E3E3",
"w.	g #141414",
"                                                    ",
"                              . + @ # $             ",
"    % & * = - ;               > , ' ) ! ~           ",
"          ) { ]               ^ / ( _ : < ~         ",
"            [ }             | 1 ; 2 3 4 5 <         ",
"            6 7             8 9 ~ 0 a b c d )       ",
"          e f g           @ h 4 @ ( [ i j k 4       ",
"        $ l m             n o p q r s t u v w *     ",
"        / x               y z ! 2 5 A B v v C D     ",
"      E F G             H I J K L c M N v v O M     ",
"    $ P Q               P R H M S T U V v W X q     ",
"    j Y     Z `          .J _   ..+.x @.#.f -       ",
"  $ $.%.v &.*.=.-.;.    >.      ,.G '.o ).!.~.      ",
"    {.].^.A /.  (.,     >.    $ _.g :.w <.F         ",
"                ) [.    >.  0 ) ~.}.|.1.2.m         ",
"                |.3.    >.  2 ` 4.5.6.7.8.          ",
"                % ^.    >.q ~ J < 9.0.W             ",
"                a.b.    >.( g E (.y c.              ",
"                1 ;     >./ s d.e.f.      g.h.      ",
"              ; 1       >.>.i.j.f.      : k.@       ",
"                !.'     >.>.l.m.      q o -         ",
"                -.b.    >.n.o.q       p.$.q         ",
"                n q.@   r.s.q     ~.+ t.q           ",
"                  Y u.n v.  ' b.r.!.9 @             ",
"                    i &.w.>.k.-.r.v.                ",
"                                                    "};
