/* XPM */
static char * inactive_dot______xpm[] = {
"26 26 19 1",
" 	g None",
".	g #3A3A3A",
"+	g #2E2E2E",
"@	g #6B6B6B",
"#	g #C2C2C2",
"$	g #C0C0C0",
"%	g #BDBDBD",
"&	g #BABABA",
"*	g #B6B6B6",
"=	g #B3B3B3",
"-	g #AFAFAF",
";	g #ACACAC",
">	g #B2B2B2",
",	g #A8A8A8",
"'	g #ABABAB",
")	g #A4A4A4",
"!	g #A7A7A7",
"~	g #A5A5A5",
"{	g #A1A1A1",
"                          ",
"                          ",
"                          ",
"                          ",
"                          ",
"                          ",
"                          ",
"                          ",
"                          ",
"         .......+         ",
"         @#$%&*=.         ",
"         @$%&*=-.         ",
"         @%&*=-;.         ",
"         @&*>-;,.         ",
"         @*>-',).         ",
"         @>-'!~{.         ",
"         @@@@@@@.         ",
"                          ",
"                          ",
"                          ",
"                          ",
"                          ",
"                          ",
"                          ",
"                          ",
"                          "};
