/* XPM */
static char * spline_xpm[] = {
"26 26 194 2",
"  	c None",
". 	c None",
"+ 	c #F7F7F7",
"@ 	c #3F4647",
"# 	c #BEE3E7",
"$ 	c #C9E8EB",
"% 	c #EBF6F8",
"& 	c #B1B1B1",
"* 	c #4F4F4F",
"= 	c #4D4D4D",
"- 	c #4A4A4A",
"; 	c #474747",
"> 	c #454545",
", 	c #424242",
"' 	c #3F3F3F",
") 	c #3C3C3C",
"! 	c #393939",
"~ 	c #373737",
"{ 	c #343434",
"] 	c #313131",
"^ 	c #9D9E9F",
"/ 	c #384647",
"( 	c #B6E0E4",
"_ 	c #E5F4F5",
": 	c #A9D6DE",
"< 	c #C3DDE5",
"[ 	c #878787",
"} 	c #919191",
"| 	c #2D3131",
"1 	c #81A2A6",
"2 	c #D5EDF0",
"3 	c #E1F2F4",
"4 	c #A0CED8",
"5 	c #89B7C9",
"6 	c #CDDDE7",
"7 	c #F3F3F3",
"8 	c #575757",
"9 	c #C2C2C2",
"0 	c #C7C7C7",
"a 	c #222828",
"b 	c #B1DEE2",
"c 	c #F5FBFB",
"d 	c #BADEE5",
"e 	c #95C3D1",
"f 	c #7DABC2",
"g 	c #99B8CD",
"h 	c #D4D4D4",
"i 	c #484848",
"j 	c #EFEFEF",
"k 	c #545859",
"l 	c #6A8487",
"m 	c #C7E7EB",
"n 	c #EFF8F9",
"o 	c #A2CFD9",
"p 	c #8AB8CA",
"q 	c #72A0BB",
"r 	c #6491B1",
"s 	c #D7E1EA",
"t 	c #8D8D8D",
"u 	c #717171",
"v 	c #EBEBEB",
"w 	c #141616",
"x 	c #A8D3D7",
"y 	c #E9F5F7",
"z 	c #CAE6EA",
"A 	c #96C4D2",
"B 	c #7FADC2",
"C 	c #6695B4",
"D 	c #4E7EA5",
"E 	c #82A1BE",
"F 	c #F6F8FA",
"G 	c #F8F8F8",
"H 	c #464646",
"I 	c #B6B6B6",
"J 	c #848686",
"K 	c #546365",
"L 	c #BBE2E6",
"M 	c #F9FCFD",
"N 	c #A6D1DB",
"O 	c #8BB9CA",
"P 	c #73A1BC",
"Q 	c #5B8AAD",
"R 	c #43739D",
"S 	c #356491",
"T 	c #33393F",
"U 	c #CACACA",
"V 	c #191A1B",
"W 	c #97BEC2",
"X 	c #CEEAED",
"Y 	c #D3EAEF",
"Z 	c #97C5D2",
"` 	c #80AEC3",
" .	c #6796B5",
"..	c #4F7FA5",
"+.	c #3C6C99",
"@.	c #314C66",
"#.	c #4A4C4F",
"$.	c #5D5D5D",
"%.	c #979797",
"&.	c #1A1E1E",
"*.	c #ADDADE",
"=.	c #B0DDE2",
"-.	c #A3D1DA",
";.	c #8CBACB",
">.	c #74A2BC",
",.	c #5C8BAD",
"'.	c #44749E",
").	c #376796",
"!.	c #1C2329",
"~.	c #B7B7B7",
"{.	c #D2D2D2",
"].	c #252525",
"^.	c #5D5E5E",
"/.	c #181C1C",
"(.	c #4B5F62",
"_.	c #698891",
":.	c #78A3B8",
"<.	c #6897B5",
"[.	c #5080A6",
"}.	c #3D6D99",
"|.	c #2E557C",
"1.	c #1F2123",
"2.	c #616161",
"3.	c #909090",
"4.	c #A8A8A8",
"5.	c #7B7B7B",
"6.	c #848581",
"7.	c #3D403D",
"8.	c #090B0C",
"9.	c #2A3F4F",
"0.	c #416E95",
"a.	c #243442",
"b.	c #838587",
"c.	c #CFCFCF",
"d.	c #303030",
"e.	c #6F6F6F",
"f.	c #D0CFCA",
"g.	c #FFF5D6",
"h.	c #FFE9A9",
"i.	c #E7C971",
"j.	c #665B32",
"k.	c #0C0D0A",
"l.	c #121C25",
"m.	c #222529",
"n.	c #242424",
"o.	c #D3D3D3",
"p.	c #F4F4F4",
"q.	c #EBE4CD",
"r.	c #FFEBB1",
"s.	c #FFE084",
"t.	c #FFD556",
"u.	c #FFC928",
"v.	c #332B11",
"w.	c #74736D",
"x.	c #7C7C7C",
"y.	c #FCFCFC",
"z.	c #7E7E7C",
"A.	c #282827",
"B.	c #5F573E",
"C.	c #B59944",
"D.	c #FBC830",
"E.	c #9B770A",
"F.	c #403D35",
"G.	c #CBCBCB",
"H.	c #050505",
"I.	c #737373",
"J.	c #131006",
"K.	c #181409",
"L.	c #14110A",
"M.	c #D7D7D7",
"N.	c #101010",
"O.	c #6C6C6C",
"P.	c #4C4C4C",
"Q.	c #DBDBDB",
"R.	c #000000",
"S.	c #141414",
"T.	c #A3A3A3",
"U.	c #ABABAB",
"V.	c #0C0C0C",
"W.	c #181818",
"X.	c #FBFBFB",
"Y.	c #606060",
"Z.	c #383838",
"`.	c #787878",
" +	c #282828",
".+	c #BFBFBF",
"++	c #040404",
"@+	c #DFDFDF",
"#+	c #BBBBBB",
"$+	c #646464",
"%+	c #1C1C1C",
"&+	c #404040",
"*+	c #9B9B9B",
"=+	c #808080",
". . . . . . . . . . . . . . . . . . . . . . . . . . ",
". . . . . . . . . . . . . . . . . + @ # $ % . . . . ",
". . . & * = - ; > , ' ) ! ~ { ] . ^ / ( _ : < . . . ",
". . . . [ } . . . . . . . . . . . | 1 2 3 4 5 6 . . ",
". . . . 7 8 9 . . . . . . . . . 0 a b c d e f g . . ",
". . . . . h i j . . . . . . . . k l m n o p q r s . ",
". . . . . . t u . . . . . . . v w x y z A B C D E F ",
". . . . . . G H I . . . . . . J K L M N O P Q R S T ",
". . . . . . . U { G . . . . . V W X Y Z `  ...+.@.#.",
". . . . . . . . $.%.. . . . . &.*.=.-.;.>.,.'.).!.~.",
". . . . . . . . {.].+ . . . . ^./.(._.:.<.[.}.|.1.. ",
". . . . . . . . . 2.3.. . . . 4.5.6.7.8.9.0.).a.b.. ",
". . . . . . . . . c.d.. . . . e.f.g.h.i.j.k.l.m.7 . ",
". . . . . . . . . . n.o.. . p., q.r.s.t.u.v.w.v . . ",
". . . . . . . . . . x.x.. . y.z.A.B.C.D.E.F.. . . . ",
". . . . . . . . . . G.{ . . . G.H.I.J.K.L.M.. . . . ",
". . . . . . . . . . j N.. . . O.P.O.i Q.G.. . . . . ",
". . . . . . . . . . . R.. . + S.T.N.U.. . . . . . . ",
". . . . . . . . . . v V.. . U.S.%.W.X.. . . . . . . ",
". . . . . . . . . . [ Y.. . P.O.Z.`.. . . . . . . . ",
". .  +R.R.R. +. . .+W.M.. . d.Y.++@+. . . . . . . . ",
". . N.j . . R.#+$+%+~.. . . U.&+*+. . . . . . . . . ",
". . R.. . . R.) =+j . . W.R. +. . . . . . . . . . . ",
". . R.. . . R.R.R.R.R.R.R.. R.. . . . . . . . . . . ",
". . n.R.R.R.W.. . . . . W.R.W.. . . . . . . . . . . ",
". . . . . . . . . . . . . . . . . . . . . . . . . . "};
