/* XPM */
static char * xml_xpm[] = {
"26 26 78 1",
" 	c None",
".	c None",
"+	c #FBFBFB",
"@	c #888A85",
"#	c #898B86",
"$	c #BEBEBE",
"%	c #808080",
"&	c #B9B9B9",
"*	c #ECECEA",
"=	c #0F0F0F",
"-	c #DDDDDB",
";	c #000000",
">	c #D5D5D3",
",	c #EBEBE9",
"'	c #CACAC8",
")	c #DCDCDA",
"!	c #E7E7E7",
"~	c #161616",
"{	c #B4B4B2",
"]	c #0A0A0A",
"^	c #222222",
"/	c #252524",
"(	c #656564",
"_	c #9E9E9D",
":	c #B3B3B2",
"<	c #898988",
"[	c #EAEAE8",
"}	c #0D0D0D",
"|	c #B2B2B1",
"1	c #BEBEBD",
"2	c #191919",
"3	c #1D1D1D",
"4	c #DBDBDA",
"5	c #E9E9E7",
"6	c #888888",
"7	c #020202",
"8	c #0F0F0E",
"9	c #DADAD9",
"0	c #B2B2B0",
"a	c #888887",
"b	c #E8E8E6",
"c	c #DADAD8",
"d	c #D6D6D4",
"e	c #C7C7C6",
"f	c #747473",
"g	c #D1D1D0",
"h	c #E7E7E5",
"i	c #C7C7C5",
"j	c #E6E6E4",
"k	c #DFDFDD",
"l	c #B0B0AF",
"m	c #202020",
"n	c #204A87",
"o	c #E5E5E3",
"p	c #AFAFAE",
"q	c #151515",
"r	c #AAC5E2",
"s	c #315991",
"t	c #AFAFAD",
"u	c #E4E4E2",
"v	c #729FCF",
"w	c #315891",
"x	c #F7F7F7",
"y	c #80807F",
"z	c #2E5791",
"A	c #AEAEAC",
"B	c #E3E3E1",
"C	c #E2E2E0",
"D	c #ADADAC",
"E	c #D4D4D2",
"F	c #DBDBD9",
"G	c #1C1C1C",
"H	c #EFEFEF",
"I	c #29528D",
"J	c #F0F3F7",
"K	c #264F89",
"L	c #828685",
"M	c #969793",
"..........................",
"..++++++++++++++++++++++..",
".+@@@@@@@@@@@@@@@@@@@@#$+.",
".+@...............%...@&+.",
".+@.**************=-*.@&+.",
".+@.**************;**.@&+.",
".+@.>,,,',,,,,,,,,=),.@&+.",
".+@!~{,{~']^/(//_,;,,.@&+.",
".+@.:~<~:[}|12113[=4[.@&+.",
".+@.56765589589589;55.@&+.",
".+@.0~a~0b8cb8cb8c8db.@&+.",
".+@!~0b0~e8cb8cb8cf;f.@&+.",
".+@.ghhhihhhhhhhhhhhh.@&+.",
".+@.jjjkjjkjjjjjjjjjj.@&+.",
".+@.jjlmkkmljjjjjnnnn.@&+.",
".+@.opqpoopqpoooonrrs.@&+.",
".+@.tqtuuuutqtuuunrvw.@&+.",
".+@xqyuuuuuuyqnnnnrvznnn+.",
".+@.AqABBBBAqAnrrrrvvvvn+.",
".+@.CDqDCCDqDCnrvvvvvvvn+.",
".+@.CCD2EFGDCCnnnnvvnnnn+.",
".+@....H..H......nvvIJ@&+.",
".+@@@@@@@@@@@@@@@nvvKLM&+.",
".+$&&&&&&&&&&&&&&nnnn&&$+.",
"..++++++++++++++++++++++..",
".........................."};
