/* XPM */
static char * freehand_xpm[] = {
"26 26 219 2",
"  	c None",
". 	c None",
"+ 	c #F7F7F7",
"@ 	c #616439",
"# 	c #F6FF76",
"$ 	c #F8FF93",
"% 	c #FDFFDD",
"& 	c #868686",
"* 	c #5A5A5A",
"= 	c #595959",
"- 	c #5F5F5F",
"; 	c #878787",
"> 	c #ECECEC",
", 	c #9E9F8D",
"' 	c #45481A",
") 	c #F3FF49",
"! 	c #F7FF85",
"~ 	c #F5F54A",
"{ 	c #FBF2A4",
"] 	c #F4F4F4",
"^ 	c #A2A2A2",
"/ 	c #8D8D8D",
"( 	c #373826",
"_ 	c #A3AB31",
": 	c #F5FF6B",
"< 	c #FEFEEB",
"[ 	c #F6E83E",
"} 	c #F8D83F",
"| 	c #FEEEC2",
"1 	c #CFCFCF",
"2 	c #767676",
"3 	c #D3D3D3",
"4 	c #1B1C0C",
"5 	c #EFFB48",
"6 	c #FBFDB7",
"7 	c #FAF59D",
"8 	c #F8DB39",
"9 	c #FACA31",
"0 	c #FDD276",
"a 	c #929292",
"b 	c #999999",
"c 	c #6A6C56",
"d 	c #7A8025",
"e 	c #F4FC53",
"f 	c #FFFEF6",
"g 	c #F8E24D",
"h 	c #F9CE33",
"i 	c #FBBD2B",
"j 	c #FEB741",
"k 	c #FFF2E1",
"l 	c #E2E2E2",
"m 	c #4D4D4D",
"n 	c #E4E4E4",
"o 	c #F3F3F3",
"p 	c #13140C",
"q 	c #D8E341",
"r 	c #F9FA99",
"s 	c #FCF5BC",
"t 	c #F9D235",
"u 	c #FBC22D",
"v 	c #FDB026",
"w 	c #FFA320",
"x 	c #FFCF8F",
"y 	c #FCFCFC",
"z 	c #6C6C6C",
"A 	c #A8A8A8",
"B 	c #979794",
"C 	c #484C1A",
"D 	c #F4F845",
"E 	c #FEFCE7",
"F 	c #FAE066",
"G 	c #FAC62F",
"H 	c #FCB528",
"I 	c #FEA621",
"J 	c #FFA01E",
"K 	c #F79B1D",
"L 	c #645847",
"M 	c #A0A0A0",
"N 	c #717171",
"O 	c #333426",
"P 	c #ACB032",
"Q 	c #F8F173",
"R 	c #FEF9DD",
"S 	c #FCB929",
"T 	c #FEA822",
"U 	c #9F6D27",
"V 	c #484440",
"W 	c #D8D8D8",
"X 	c #525252",
"Y 	c #EDEDED",
"Z 	c #CBCBCB",
"` 	c #1F2011",
" .	c #F1EC41",
"..	c #EDD843",
"+.	c #ECCA4D",
"@.	c #FDAC24",
"#.	c #FFA11F",
"$.	c #382C1B",
"%.	c #B3B3B3",
"&.	c #676767",
"*.	c #B8B8B8",
"=.	c #67685F",
"-.	c #808026",
";.	c #DBD06A",
">.	c #C9B562",
",.	c #A88B41",
"'.	c #926719",
").	c #B67417",
"!.	c #ED951C",
"~.	c #D38519",
"{.	c #1C1916",
"].	c #FBFBFB",
"^.	c #B6B6B6",
"/.	c #686868",
"(.	c #F9F9F9",
"_.	c #EBEBEB",
":.	c #080807",
"<.	c #E3E2D4",
"[.	c #FDFDFD",
"}.	c #FFFFFE",
"|.	c #DBCFB3",
"1.	c #8F6E3B",
"2.	c #4E310A",
"3.	c #FB9E1E",
"4.	c #6C491A",
"5.	c #545454",
"6.	c #B9B9B9",
"7.	c #ABABAB",
"8.	c #5C5C5C",
"9.	c #323232",
"0.	c #434343",
"a.	c #3C3C3C",
"b.	c #D6D6D6",
"c.	c #000000",
"d.	c #FFFAEB",
"e.	c #FFEDB8",
"f.	c #FFE085",
"g.	c #5B4620",
"h.	c #9D6212",
"i.	c #14100B",
"j.	c #E7E7E7",
"k.	c #666666",
"l.	c #474747",
"m.	c #797979",
"n.	c #BDBDBD",
"o.	c #F5F5F5",
"p.	c #C1C1C1",
"q.	c #444444",
"r.	c #FFFCF2",
"s.	c #FFF1C6",
"t.	c #FFE493",
"u.	c #FFD75F",
"v.	c #D0A523",
"w.	c #110C04",
"x.	c #55514D",
"y.	c #202020",
"z.	c #FFFEF9",
"A.	c #FFF4D4",
"B.	c #FFE7A0",
"C.	c #FFDA6C",
"D.	c #FFCD39",
"E.	c #D7A40B",
"F.	c #0C0A06",
"G.	c #CDCDCD",
"H.	c #3E3E3E",
"I.	c #FFF8E2",
"J.	c #FFEBAE",
"K.	c #FFDE7A",
"L.	c #FFD147",
"M.	c #E7B212",
"N.	c #282313",
"O.	c #8F8F8E",
"P.	c #FFFBED",
"Q.	c #FFEEBB",
"R.	c #FFE188",
"S.	c #FFD454",
"T.	c #E7B41D",
"U.	c #282211",
"V.	c #8F8E88",
"W.	c #505050",
"X.	c #BFBFBF",
"Y.	c #FFF2C9",
"Z.	c #FFE496",
"`.	c #FFD861",
" +	c #F3C12C",
".+	c #3C3318",
"++	c #807D73",
"@+	c #1B1B1B",
"#+	c #AFA070",
"$+	c #E7C665",
"%+	c #F3C439",
"&+	c #3C3111",
"*+	c #706E6A",
"=+	c #838383",
"-+	c #DBDBDB",
";+	c #14120B",
">+	c #473A15",
",+	c #706E69",
"'+	c #DFDFDF",
")+	c #181818",
"!+	c #101010",
"~+	c #EFEFEF",
"{+	c #0D0D0D",
"]+	c #3D3D3D",
"^+	c #484848",
"/+	c #010101",
"(+	c #3B3B3B",
"_+	c #585858",
":+	c #979797",
"<+	c #303030",
"[+	c #707070",
"}+	c #575757",
"|+	c #606060",
"1+	c #404040",
"2+	c #1C1C1C",
"3+	c #E3E3E3",
"4+	c #787878",
"5+	c #C3C3C3",
"6+	c #141414",
". . . . . . . . . . . . . . . . . . . . . . . . . . ",
". . . . . . . . . . . . . . . + @ # $ % . . . . . . ",
". . & * = - ; > . . . . . . . , ' ) ! ~ { . . . . . ",
". . . . . ] ^ / . . . . . . . ( _ : < [ } | . . . . ",
". . . . . . 1 2 . . . . . . 3 4 5 6 7 8 9 0 . . . . ",
". . . . . . a b . . . . . . c d e f g h i j k . . . ",
". . . . . l m n . . . . . o p q r s t u v w x . . . ",
". . . . y z A . . . . . . B C D E F G H I J K L . . ",
". . . . M N . . . . . . . O P Q R 9 S T J J U V . . ",
". . . W X Y . . . . . . Z `  ...+.i @.#.J J $.%.. . ",
". . y &.*.. . . . . . . =.-.;.>.,.'.).!.J ~.{.].. . ",
". . ^./.. . (._.. . . . :.<.[.. }.|.1.2.3.4.; . . . ",
". y 5.6.7.8.9.0.a.b.. . c.. . . d.e.f.g.h.i.j.. . . ",
". . k.l.m.n.o.. p.q.. . c.. . r.s.t.u.v.w.x.. . . . ",
". . . . . . . . ] y.. . c.. z.A.B.C.D.E.F.A . . . . ",
". . . . . . . . G.H.. . c.. I.J.K.L.M.N.O.. . . . . ",
". . . . . . . . & m.. . c.P.Q.R.S.T.U.V.. . . . . . ",
". . . . . . . . W.X.. . c.Y.Z.`. +.+++. . . . . . . ",
". . . . . . . . @+> . . c.#+$+%+&+*+. . . =+-+. . . ",
". . . . . . . > @+. . . c.c.;+>+,+. . . '+)+o . . . ",
". . . . . . . . !+~+. . c.c.{+]+. . . ].^+; . . . . ",
". . . . . . . . a.X.. . c./+(+].. . . _+5.].. . . . ",
". . . . . . . . :+<+o . [+}+].. . j.|+1+].. . . . . ",
". . . . . . . . . /.2+:+3+. ~+X.[+!+4+o . . . . . . ",
". . . . . . . . . . 5+8.6+c.)+a.[+3+. . . . . . . . ",
". . . . . . . . . . . . . . . . . . . . . . . . . . "};
