/* XPM */
static char * inactive_xml_xpm[] = {
"26 26 67 1",
" 	g None",
".	g None",
"+	g #FBFBFB",
"@	g #898989",
"#	g #8A8A8A",
"$	g #BEBEBE",
"%	g #808080",
"&	g #B9B9B9",
"*	g #ECECEC",
"=	g #0F0F0F",
"-	g #DDDDDD",
";	g #000000",
">	g #D5D5D5",
",	g #EBEBEB",
"'	g #CACACA",
")	g #DCDCDC",
"!	g #E7E7E7",
"~	g #161616",
"{	g #B4B4B4",
"]	g #0A0A0A",
"^	g #222222",
"/	g #252525",
"(	g #656565",
"_	g #9E9E9E",
":	g #B3B3B3",
"<	g #EAEAEA",
"[	g #0D0D0D",
"}	g #B2B2B2",
"|	g #191919",
"1	g #1D1D1D",
"2	g #DBDBDB",
"3	g #E9E9E9",
"4	g #888888",
"5	g #020202",
"6	g #DADADA",
"7	g #E8E8E8",
"8	g #D6D6D6",
"9	g #C7C7C7",
"0	g #747474",
"a	g #D1D1D1",
"b	g #E6E6E6",
"c	g #DFDFDF",
"d	g #B0B0B0",
"e	g #202020",
"f	g #454545",
"g	g #E5E5E5",
"h	g #AFAFAF",
"i	g #151515",
"j	g #C1C1C1",
"k	g #555555",
"l	g #E4E4E4",
"m	g #999999",
"n	g #545454",
"o	g #F7F7F7",
"p	g #525252",
"q	g #AEAEAE",
"r	g #E3E3E3",
"s	g #E2E2E2",
"t	g #ADADAD",
"u	g #D4D4D4",
"v	g #1C1C1C",
"w	g #EFEFEF",
"x	g #4E4E4E",
"y	g #F3F3F3",
"z	g #4A4A4A",
"A	g #858585",
"B	g #969696",
"..........................",
"..++++++++++++++++++++++..",
".+@@@@@@@@@@@@@@@@@@@@#$+.",
".+@...............%...@&+.",
".+@.**************=-*.@&+.",
".+@.**************;**.@&+.",
".+@.>,,,',,,,,,,,,=),.@&+.",
".+@!~{,{~']^/(//_,;,,.@&+.",
".+@.:~@~:<[}$|$$1<=2<.@&+.",
".+@.345433=63=63=6;33.@&+.",
".+@.}~4~}7=67=67=6=87.@&+.",
".+@!~}7}~9=67=67=60;0.@&+.",
".+@.a!!!9!!!!!!!!!!!!.@&+.",
".+@.bbbcbbcbbbbbbbbbb.@&+.",
".+@.bbdeccedbbbbbffff.@&+.",
".+@.ghihgghihggggfjjk.@&+.",
".+@.hihllllhihlllfjmn.@&+.",
".+@oi%llllll%iffffjmpfff+.",
".+@.qiqrrrrqiqfjjjjmmmmf+.",
".+@.stitsstitsfjmmmmmmmf+.",
".+@.sst|u2vtssffffmmffff+.",
".+@....w..w......fmmxy@&+.",
".+@@@@@@@@@@@@@@@fmmzAB&+.",
".+$&&&&&&&&&&&&&&ffff&&$+.",
"..++++++++++++++++++++++..",
".........................."};
