/* XPM */
static char * inactive_spline___xpm[] = {
"26 26 141 2",
"  	g None",
". 	g #F7F7F7",
"+ 	g #454545",
"@ 	g #DBDBDB",
"# 	g #E2E2E2",
"$ 	g #F4F4F4",
"% 	g #B1B1B1",
"& 	g #4F4F4F",
"* 	g #4D4D4D",
"= 	g #4A4A4A",
"- 	g #474747",
"; 	g #424242",
"> 	g #3F3F3F",
", 	g #3C3C3C",
"' 	g #393939",
") 	g #373737",
"! 	g #343434",
"~ 	g #313131",
"{ 	g #9E9E9E",
"] 	g #434343",
"^ 	g #D7D7D7",
"/ 	g #F1F1F1",
"( 	g #CDCDCD",
"_ 	g #D8D8D8",
": 	g #878787",
"< 	g #919191",
"[ 	g #303030",
"} 	g #9B9B9B",
"| 	g #E8E8E8",
"1 	g #EFEFEF",
"2 	g #C5C5C5",
"3 	g #AFAFAF",
"4 	g #DADADA",
"5 	g #F3F3F3",
"6 	g #575757",
"7 	g #C2C2C2",
"8 	g #C7C7C7",
"9 	g #272727",
"0 	g #D5D5D5",
"a 	g #FAFAFA",
"b 	g #BABABA",
"c 	g #A3A3A3",
"d 	g #B3B3B3",
"e 	g #D4D4D4",
"f 	g #484848",
"g 	g #7F7F7F",
"h 	g #E0E0E0",
"i 	g #F6F6F6",
"j 	g #C6C6C6",
"k 	g #B0B0B0",
"l 	g #989898",
"m 	g #8A8A8A",
"n 	g #8D8D8D",
"o 	g #717171",
"p 	g #EBEBEB",
"q 	g #161616",
"r 	g #CACACA",
"s 	g #BBBBBB",
"t 	g #A5A5A5",
"u 	g #777777",
"v 	g #9D9D9D",
"w 	g #F8F8F8",
"x 	g #464646",
"y 	g #B6B6B6",
"z 	g #868686",
"A 	g #606060",
"B 	g #FBFBFB",
"C 	g #C9C9C9",
"D 	g #999999",
"E 	g #838383",
"F 	g #6C6C6C",
"G 	g #5D5D5D",
"H 	g #383838",
"I 	g #1A1A1A",
"J 	g #E4E4E4",
"K 	g #E5E5E5",
"L 	g #BCBCBC",
"M 	g #A6A6A6",
"N 	g #8E8E8E",
"O 	g #787878",
"P 	g #656565",
"Q 	g #4C4C4C",
"R 	g #979797",
"S 	g #1D1D1D",
"T 	g #D1D1D1",
"U 	g #C8C8C8",
"V 	g #9A9A9A",
"W 	g #6D6D6D",
"X 	g #222222",
"Y 	g #B7B7B7",
"Z 	g #D2D2D2",
"` 	g #252525",
" .	g #5E5E5E",
"..	g #1B1B1B",
"+.	g #5B5B5B",
"@.	g #828282",
"#.	g #8F8F8F",
"$.	g #797979",
"%.	g #666666",
"&.	g #505050",
"*.	g #212121",
"=.	g #616161",
"-.	g #909090",
";.	g #A8A8A8",
">.	g #7B7B7B",
",.	g #848484",
"'.	g #0B0B0B",
").	g #676767",
"!.	g #323232",
"~.	g #858585",
"{.	g #CFCFCF",
"].	g #6F6F6F",
"^.	g #F5F5F5",
"/.	g #E9E9E9",
"(.	g #5A5A5A",
"_.	g #0D0D0D",
":.	g #242424",
"<.	g #D3D3D3",
"[.	g #2B2B2B",
"}.	g #737373",
"|.	g #7C7C7C",
"1.	g #FCFCFC",
"2.	g #7E7E7E",
"3.	g #282828",
"4.	g #3D3D3D",
"5.	g #CBCBCB",
"6.	g #050505",
"7.	g #101010",
"8.	g #141414",
"9.	g #111111",
"0.	g #000000",
"a.	g #ABABAB",
"b.	g #0C0C0C",
"c.	g #181818",
"d.	g #BFBFBF",
"e.	g #040404",
"f.	g #DFDFDF",
"g.	g #646464",
"h.	g #1C1C1C",
"i.	g #404040",
"j.	g #808080",
"                                                    ",
"                                  . + @ # $         ",
"      % & * = - + ; > , ' ) ! ~   { ] ^ / ( _       ",
"        : <                       [ } | 1 2 3 4     ",
"        5 6 7                   8 9 0 a ^ b c d     ",
"          e f 1                 6 g h i j k l m h   ",
"            n o               p q r 5 h s t n u v w ",
"            w x y             z A 4 B C k D E F G H ",
"              r ! w           I y J K L M N O P f Q ",
"                G R           S T e U % V E W A X Y ",
"                Z ` .          ...+.@.} #.$.%.&.*.  ",
"                  =.-.        ;.>.,.> '., ).A !.~.  ",
"                  {.[         ].{.^./.C (._...` 5   ",
"                    :.<.    $ ; J p h 0 C [.}.p     ",
"                    |.|.    1.2.3.6 D U u 4.        ",
"                    5.!       5.6.}.7.8.9.^         ",
"                    1 7.      F Q F f @ 5.          ",
"                      0.    . 8.c 7.a.              ",
"                    p b.    a.8.R c.B               ",
"                    : A     Q F H O                 ",
"    3.0.0.0.3.    d.c.^     [ A e.f.                ",
"    7.1     0.s g.h.Y       a.i.}                   ",
"    0.      0., j.1     c.0.3.                      ",
"    0.      0.0.0.0.0.0.0.  0.                      ",
"    :.0.0.0.c.          c.0.c.                      ",
"                                                    "};
