/* XPM */
static char * inactive_poly_____xpm[] = {
"26 26 86 1",
" 	g None",
".	g #858585",
"+	g #6F6F6F",
"@	g #787878",
"#	g #C1C1C1",
"$	g #C6C6C6",
"%	g #EEEEEE",
"&	g #D1D1D1",
"*	g #B6B6B6",
"=	g #979797",
"-	g #7C7C7C",
";	g #777777",
">	g #707070",
",	g #747474",
"'	g #383838",
")	g #121212",
"!	g #292929",
"~	g #C0C0C0",
"{	g #8B8B8B",
"]	g #737373",
"^	g #949494",
"/	g #ADADAD",
"(	g #CCCCCC",
"_	g #E4E4E4",
":	g #ECECEC",
"<	g #B7B7B7",
"[	g #BBBBBB",
"}	g #A2A2A2",
"|	g #7D7D7D",
"1	g #1A1A1A",
"2	g #CFCFCF",
"3	g #FDFDFD",
"4	g #9E9E9E",
"5	g #646464",
"6	g #555555",
"7	g #222222",
"8	g #E1E1E1",
"9	g #999999",
"0	g #696969",
"a	g #8D8D8D",
"b	g #9F9F9F",
"c	g #242424",
"d	g #A1A1A1",
"e	g #5B5B5B",
"f	g #D5D5D5",
"g	g #2E2E2E",
"h	g #676767",
"i	g #DCDCDC",
"j	g #F0F0F0",
"k	g #E3E3E3",
"l	g #E9E9E9",
"m	g #262626",
"n	g #606060",
"o	g #F3F3F3",
"p	g #FAFAFA",
"q	g #E8E8E8",
"r	g #919191",
"s	g #141414",
"t	g #BFBFBF",
"u	g #F5F5F5",
"v	g #F8F8F8",
"w	g #1C1C1C",
"x	g #000000",
"y	g #5A5A5A",
"z	g #F4F4F4",
"A	g #C5C5C5",
"B	g #B4B4B4",
"C	g #AAAAAA",
"D	g #343434",
"E	g #D2D2D2",
"F	g #7F7F7F",
"G	g #EBEBEB",
"H	g #565656",
"I	g #040404",
"J	g #E7E7E7",
"K	g #818181",
"L	g #3C3C3C",
"M	g #F9F9F9",
"N	g #F2F2F2",
"O	g #101010",
"P	g #F7F7F7",
"Q	g #A6A6A6",
"R	g #686868",
"S	g #BEBEBE",
"T	g #F6F6F6",
"U	g #F1F1F1",
"                          ",
"                    .+++. ",
"                    @#$$+ ",
"             %&*=-;;>,,$+ ",
"    ')))))!~{]^/(_::;<[$+ ",
"    )}}}}|1|23      .+++. ",
"    )}}45678              ",
"    )}90abc8              ",
"    )de= fg8              ",
"    )0h}ijkl              ",
"    m)))'_nop             ",
"    d~   qrsto            ",
"   u>v    owxyz%          ",
"   Ad     :Bxxsto         ",
"   C[      jDxxxyz%       ",
"   ^2      uExxxxsto      ",
"   F_       GHxxxxxyz%    ",
"   0p        lIxxxxxsto   ",
"   5         JKxxxxxxLMM  ",
"   5          NOxxxxLPp   ",
" .+++.        qQxxxLPp    ",
" +$R$+         NcxLPp     ",
" +$R$+         3SLT       ",
" +$[$+          Uv        ",
" |+++|                    ",
"                          "};
