/* XPM */
static char * spline_xpm[] = {
"26 26 104 2",
"  	c None",
". 	c None",
"+ 	c #7C7CFF",
"@ 	c #6464FF",
"# 	c #6E6EFF",
"$ 	c #BCBCFF",
"% 	c #C2C2FF",
"& 	c #EEEEEE",
"* 	c #D1D1D1",
"= 	c #B6B6B6",
"- 	c #979797",
"; 	c #7C7C7C",
"> 	c #777777",
", 	c #6565F7",
"' 	c #6F6FB1",
") 	c #7070AC",
"! 	c #2828FF",
"~ 	c #0000FF",
"{ 	c #1818FF",
"] 	c #BFBFCF",
"^ 	c #8B8B8B",
"/ 	c #737373",
"( 	c #949494",
"_ 	c #ADADAD",
": 	c #CCCCCC",
"< 	c #E4E4E4",
"[ 	c #ECECEC",
"} 	c #6D6DFE",
"| 	c #B2B2F4",
"1 	c #B7B7F3",
"2 	c #9B9BFF",
"3 	c #7676DA",
"4 	c #0909F4",
"5 	c #7B7B9B",
"6 	c #CFCFCF",
"7 	c #FDFDFD",
"8 	c #9797FB",
"9 	c #5D5DC1",
"0 	c #4E4EB2",
"a 	c #1111FD",
"b 	c #DFDFFF",
"c 	c #9292F6",
"d 	c #6363B9",
"e 	c #8787D6",
"f 	c #9898FC",
"g 	c #1313FF",
"h 	c #9A9AFE",
"i 	c #5454B8",
"j 	c #9292DE",
"k 	c #D2D2FA",
"l 	c #1E1EFF",
"m 	c #6262C6",
"n 	c #6060C4",
"o 	c #DADAF0",
"p 	c #F0F0F1",
"q 	c #E1E1F7",
"r 	c #E7E7FF",
"s 	c #1515FC",
"t 	c #E3E3EE",
"u 	c #606060",
"v 	c #F3F3F4",
"w 	c #FAFAFA",
"x 	c #A1A1A1",
"y 	c #C0C0C0",
"z 	c #E8E8E8",
"A 	c #919191",
"B 	c #141414",
"C 	c #BFBFBF",
"D 	c #F3F3F3",
"E 	c #F5F5F5",
"F 	c #707070",
"G 	c #F8F8F8",
"H 	c #1C1C1C",
"I 	c #000000",
"J 	c #5A5A5A",
"K 	c #F4F4F4",
"L 	c #C5C5C5",
"M 	c #B4B4B4",
"N 	c #AAAAAA",
"O 	c #BBBBBB",
"P 	c #F0F0F0",
"Q 	c #343434",
"R 	c #D2D2D2",
"S 	c #7F7F7F",
"T 	c #EBEBEB",
"U 	c #565656",
"V 	c #696969",
"W 	c #E9E9E9",
"X 	c #040404",
"Y 	c #646464",
"Z 	c #E7E7E7",
"` 	c #818181",
" .	c #3C3C3C",
"..	c #F9F9F9",
"+.	c #F2F2F2",
"@.	c #101010",
"#.	c #F7F7F7",
"$.	c #A6A6A6",
"%.	c #6464A1",
"&.	c #242424",
"*.	c #BEBEBE",
"=.	c #F6F6F6",
"-.	c #F1F1F1",
";.	c #7373FF",
". . . . . . . . . . . . . . . . . . . . . . . . . . ",
". . . . . . . . . . . . . . . . . . . . + @ @ @ + . ",
". . . . . . . . . . . . . . . . . . . . # $ % % @ . ",
". . . . . . . . . . . . . & * = - ; > > , ' ) % @ . ",
". . . . ! ~ ~ ~ ~ ~ { ] ^ / ( _ : < [ [ } | 1 % @ . ",
". . . . ~ 2 2 2 2 3 4 5 6 7 . . . . . . + @ @ @ + . ",
". . . . ~ 2 2 8 9 0 a b . . . . . . . . . . . . . . ",
". . . . ~ 2 c d e f g b . . . . . . . . . . . . . . ",
". . . . ~ h i j . k l b . . . . . . . . . . . . . . ",
". . . . ~ m n 2 o p q r . . . . . . . . . . . . . . ",
". . . . s ~ ~ ~ ! t u v w . . . . . . . . . . . . . ",
". . . . x y . . . z A B C D . . . . . . . . . . . . ",
". . . E F G . . . . D H I J K & . . . . . . . . . . ",
". . . L x . . . . . [ M I I B C D . . . . . . . . . ",
". . . N O . . . . . . P Q I I I J K & . . . . . . . ",
". . . ( 6 . . . . . . E R I I I I B C D . . . . . . ",
". . . S < . . . . . . . T U I I I I I J K & . . . . ",
". . . V w . . . . . . . . W X I I I I I B C D . . . ",
". . . Y . . . . . . . . . Z ` I I I I I I  ...... . ",
". . . Y . . . . . . . . . . +.@.I I I I  .#.w . . . ",
". + @ @ @ + . . . . . . . . z $.I I I  .#.w . . . . ",
". @ % %.% @ . . . . . . . . . +.&.I  .#.w . . . . . ",
". @ % %.% @ . . . . . . . . . 7 *. .=.. . . . . . . ",
". @ % 1 % @ . . . . . . . . . . -.G . . . . . . . . ",
". ;.@ @ @ ;.. . . . . . . . . . . . . . . . . . . . ",
". . . . . . . . . . . . . . . . . . . . . . . . . . "};
